<?xml version="1.0" encoding="UTF-8"?>
<svg width="148px" height="55px" viewBox="0 0 148 55" version="1.1" xmlns="http://www.w3.org/2000/svg" xmlns:xlink="http://www.w3.org/1999/xlink">
    <!-- Generator: Sketch 54.1 (76490) - https://sketchapp.com -->
    <title>Fill 2 Copy</title>
    <desc>Created with Sketch.</desc>
    <g id="Page-1" stroke="none" stroke-width="1" fill="none" fill-rule="evenodd">
        <g id="Desktop-HD-Copy" transform="translate(-120.000000, 0.000000)">
            <g id="Group-82" transform="translate(0.000000, -1.000000)">
                <g id="Group">
                    <g id="careportal-color" transform="translate(119.396728, 0.326976)">
                        <path d="M24.638666,17 C28.733167,17 30.8396415,19.2982927 30.8396415,19.2982927 L29.3722016,21.5717073 C29.3722016,21.5717073 27.4558289,19.795122 24.7805112,19.795122 C21.2307251,19.795122 19.1476477,22.447561 19.1476477,25.5741463 C19.1476477,28.7709756 21.3009165,31.5902439 24.8046395,31.5902439 C27.715391,31.5902439 29.6800204,29.4587805 29.6800204,29.4587805 L31.2893055,31.6619512 C31.2893055,31.6619512 28.9700631,34.3853659 24.6861914,34.3853659 C19.5505173,34.3853659 16,30.572439 16,25.6217073 C16,20.7419512 19.6916314,17 24.638666,17" id="Fill-81" fill="#737374"></path>
                        <path d="M37.1887503,32.0407561 C38.7746383,32.0407561 39.9108623,30.3351463 39.9108623,28.8666098 L39.9108623,28.5819756 L39.3902758,28.5819756 C37.8519132,28.5819756 35.3659662,28.7956341 35.3659662,30.4770976 C35.3659662,31.283439 35.9574754,32.0407561 37.1887503,32.0407561 M39.4845955,26.5222195 L39.886734,26.5222195 L39.886734,26.356122 C39.886734,24.7690488 38.8930864,24.2239268 37.5682228,24.2239268 C35.8404896,24.2239268 34.2538705,25.3851463 34.2538705,25.3851463 L33.1176464,23.2295366 C33.1176464,23.2295366 34.987956,21.7368537 37.8519132,21.7368537 C41.0236892,21.7368537 42.8691393,23.4900244 42.8691393,26.5449024 L42.8691393,34.1012439 L40.100233,34.1012439 L40.100233,33.1068537 C40.100233,32.6327073 40.1470273,32.2536829 40.1470273,32.2536829 L40.100233,32.2536829 C40.1236301,32.2536829 39.1767768,34.3851463 36.4312676,34.3851463 C34.2779988,34.3851463 32.3367666,33.0351463 32.3367666,30.6197805 C32.3367666,26.7819756 37.5199662,26.5222195 39.4845955,26.5222195" id="Fill-70" fill="#737374"></path>
                        <path d="M44.1590534,22.3052439 L47.0464077,22.3052439 L47.0464077,24.389878 C47.0464077,24.8391463 46.9996134,25.2423171 46.9996134,25.2423171 L47.0464077,25.2423171 C47.5911226,23.5132927 49.0344342,22.1391463 50.8806155,22.1391463 C51.1650371,22.1391463 51.4253303,22.1859756 51.4253303,22.1859756 L51.4253303,25.1471951 C51.4253303,25.1471951 51.1175116,25.0996341 50.714642,25.0996341 C49.4373039,25.0996341 47.9932611,25.8342683 47.4251491,27.6342683 C47.2365096,28.2262195 47.1648558,28.889878 47.1648558,29.5996341 L47.1648558,34.1237805 L44.1590534,34.1237805 L44.1590534,22.3052439 Z" id="Fill-71" fill="#737374"></path>
                        <path d="M91.5199273,22.3052439 L94.4072817,22.3052439 L94.4072817,24.389878 C94.4072817,24.8391463 94.3604874,25.2423171 94.3604874,25.2423171 L94.4072817,25.2423171 C94.9519965,23.5132927 96.3953081,22.1391463 98.2407582,22.1391463 C98.525911,22.1391463 98.7862043,22.1859756 98.7862043,22.1859756 L98.7862043,25.1471951 C98.7862043,25.1471951 98.4783855,25.0996341 98.0755159,25.0996341 C96.7981778,25.0996341 95.354135,25.8342683 94.786023,27.6342683 C94.5973835,28.2262195 94.5249986,28.889878 94.5249986,29.5996341 L94.5249986,34.1237805 L91.5199273,34.1237805 L91.5199273,22.3052439 Z" id="Fill-72" fill="#F16822"></path>
                        <path d="M60.4230695,26.5697805 C60.3762752,24.9344146 59.357768,24.058561 58.0321733,24.058561 C56.4938108,24.058561 55.4292405,25.006122 55.1455501,26.5697805 L60.4230695,26.5697805 Z M58.1030959,21.7375854 C61.5826906,21.7375854 63.4530002,24.2714878 63.4530002,27.4697805 C63.4530002,27.8246585 63.3813464,28.6302683 63.3813464,28.6302683 L55.0504992,28.6302683 C55.2391387,30.7383171 56.8732833,31.8278293 58.6712079,31.8278293 C60.6124401,31.8278293 62.1508026,30.5019756 62.1508026,30.5019756 L63.311155,32.656122 C63.311155,32.656122 61.4649737,34.3851463 58.4584401,34.3851463 C54.4582589,34.3851463 51.9737741,31.4956341 51.9737741,28.0617317 C51.9737741,24.3431951 54.5065155,21.7375854 58.1030959,21.7375854 L58.1030959,21.7375854 Z" id="Fill-73" fill="#737374"></path>
                        <path d="M70.6943446,25.9288049 C72.4688721,25.9288049 73.5115075,24.7924634 73.5115075,23.0392927 C73.5115075,21.3102683 72.4688721,20.1973415 70.7411389,20.1973415 L67.8303874,20.1973415 L67.8303874,25.9288049 L70.6943446,25.9288049 Z M64.7770595,17.5683171 L71.2617255,17.5683171 C74.4101043,17.5683171 76.6108986,19.7707561 76.6108986,23.0392927 C76.6108986,26.308561 74.4101043,28.5812439 71.2617255,28.5812439 L67.8303874,28.5812439 L67.8303874,34.3851463 L64.7770595,34.3851463 L64.7770595,17.5683171 Z" id="Fill-74" fill="#F16822"></path>
                        <path d="M101.636562,25.0295366 L100.074802,25.0295366 L100.074802,22.6368537 L101.708216,22.6368537 L101.708216,18.8956341 L104.642364,18.8956341 L104.642364,22.6368537 L107.387874,22.6368537 L107.387874,25.0295366 L104.642364,25.0295366 L104.642364,29.4592927 C104.642364,31.4488049 106.204855,31.733439 107.032529,31.733439 C107.364476,31.733439 107.577244,31.685878 107.577244,31.685878 L107.577244,34.3141707 C107.577244,34.3141707 107.2219,34.3851463 106.654519,34.3851463 C104.97358,34.3851463 101.636562,33.8883171 101.636562,29.8375854 L101.636562,25.0295366 Z" id="Fill-75" fill="#F16822"></path>
                        <path d="M113.617145,32.0407561 C115.202302,32.0407561 116.338526,30.3351463 116.338526,28.8666098 L116.338526,28.5819756 L115.817208,28.5819756 C114.278846,28.5819756 111.794361,28.7956341 111.794361,30.4770976 C111.794361,31.283439 112.38587,32.0407561 113.617145,32.0407561 M115.912259,26.5222195 L116.314398,26.5222195 L116.314398,26.356122 C116.314398,24.7690488 115.32075,24.2239268 113.995155,24.2239268 C112.267422,24.2239268 110.681534,25.3851463 110.681534,25.3851463 L109.546041,23.2295366 C109.546041,23.2295366 111.41562,21.7368537 114.278846,21.7368537 C117.451353,21.7368537 119.297534,23.4900244 119.297534,26.5449024 L119.297534,34.1012439 L116.527165,34.1012439 L116.527165,33.1068537 C116.527165,32.6327073 116.574691,32.2536829 116.574691,32.2536829 L116.527165,32.2536829 C116.551294,32.2536829 115.60444,34.3851463 112.858931,34.3851463 C110.704931,34.3851463 108.76443,33.0351463 108.76443,30.6197805 C108.76443,26.7819756 113.94763,26.5222195 115.912259,26.5222195" id="Fill-76" fill="#F16822"></path>
                        <path d="M120.587448,17.4505854 L123.569853,17.4505854 L123.569853,30.0513171 C123.569853,31.3779024 124.019517,31.7093659 124.801128,31.7093659 C125.037293,31.7093659 125.24933,31.6859512 125.24933,31.6859512 L125.24933,34.3142439 C125.24933,34.3142439 124.801128,34.3852195 124.303208,34.3852195 C122.647128,34.3852195 120.587448,33.9593659 120.587448,30.5013171 L120.587448,17.4505854 Z" id="Fill-77" fill="#F16822"></path>
                        <path d="M83.5742556,31.8274634 C85.5147566,31.8274634 87.1489012,30.3113659 87.1489012,28.0613659 C87.1489012,25.8347805 85.5147566,24.296 83.5742556,24.296 C81.6096263,24.296 79.976944,25.8347805 79.976944,28.0613659 C79.976944,30.3113659 81.6096263,31.8274634 83.5742556,31.8274634 M83.5508585,21.7372195 C87.2424898,21.7372195 90.201498,24.3662439 90.201498,28.0613659 C90.201498,31.7806341 87.2424898,34.3855122 83.5742556,34.3855122 C79.8826242,34.3855122 76.9236161,31.7806341 76.9236161,28.0613659 C76.9236161,24.3662439 79.8826242,21.7372195 83.5508585,21.7372195" id="Fill-78" fill="#F16822"></path>
                        <path d="M131.572409,31.9718293 L131.572409,31.7142683 L131.572409,31.4823171 C131.576796,31.4435366 131.562173,31.3871951 131.600193,31.3791463 C131.616279,31.5445122 131.64845,31.6945122 131.655031,31.8686585 L131.655031,32.2037805 L131.655031,32.2776829 C131.633827,32.2835366 131.618473,32.3032927 131.600193,32.3069512 C131.581914,32.2030488 131.635289,32.032561 131.572409,31.9718293 M133.378377,28.3615854 C133.30453,28.3118293 133.196318,28.2928049 133.076407,28.2847561 L132.892155,28.2847561 L132.699859,28.2847561 C132.717407,28.1728049 132.664033,27.9935366 132.727644,27.9240244 L132.727644,27.4593902 L132.727644,27.1762195 C132.727644,27.0642683 132.754697,26.9157317 132.754697,26.8045122 C132.772976,26.5718293 132.850479,26.267439 132.878994,26.0523171 C132.963077,25.727439 133.064709,25.5057317 133.213134,25.1479268 C133.213134,25.0015854 133.355711,24.7930488 133.355711,24.6467073 C133.165609,24.4279268 133.088106,24.2764634 132.868758,24.172561 C132.472468,24.4886585 132.0579,25.2781707 131.971623,25.8379268 C131.89412,26.3428049 131.78079,26.8754878 131.74277,27.5113415 C131.724491,27.6840244 131.733265,28.120122 131.72376,28.2189024 C131.678428,28.2189024 131.434951,28.2576829 131.383039,28.2584146 C131.306267,28.2306098 131.119821,28.235 131.078145,28.2723171 C130.947998,28.2532927 130.888774,28.3015854 130.776175,28.2979268 C130.847098,28.4142683 131.036468,28.270122 131.18855,28.2979268 L131.201711,28.2979268 C131.095692,28.420122 130.906322,28.3718293 130.768132,28.3893902 C130.61532,28.4610976 130.532699,28.3886585 130.367456,28.4340244 C130.271674,27.6057317 129.836633,26.5103659 129.584383,25.8196341 C129.41256,25.349878 128.582692,24.1776829 128.390397,24.0291463 C128.068686,24.0423171 127.966324,24.3167073 127.760868,24.4857317 C127.745513,24.6971951 128.383817,25.7171951 128.443772,25.8584146 C128.40502,25.8971951 128.424762,25.9410976 128.366269,25.8862195 C128.615595,26.399878 128.889049,26.8118293 129.006766,27.5340244 C129.008228,27.550122 129.036012,27.6240244 129.059409,27.6189024 C129.144955,27.8603659 129.231232,28.2840244 129.234888,28.5686585 C128.372118,28.7032927 128.459857,28.469878 127.971442,29.0076829 L127.971442,29.4635366 L128.061375,29.6157317 C128.152039,29.6735366 128.271949,29.6515854 128.271949,29.6515854 C128.464976,29.6684146 128.730387,29.6171951 128.87735,29.6771951 C128.970939,29.6837805 129.00969,29.7423171 129.124483,29.7291463 C129.139837,29.8462195 129.075495,29.8893902 129.09743,30.0123171 C129.079882,30.0906098 129.132525,30.2347561 129.069646,30.2706098 L129.069646,30.8376829 C129.052098,30.9408537 129.105473,31.1113415 129.042593,31.1728049 C128.997992,31.4632927 128.9278,33.4689024 128.939499,33.6635366 C129.084269,33.8369512 129.445462,33.8076829 129.517116,34.049878 C129.638489,34.090122 129.816161,34.0791463 129.957275,34.1010976 C130.012112,33.9386585 130.170774,31.9037805 130.170043,31.6886585 C130.215375,31.6184146 130.215375,31.3710976 130.170043,31.3015854 C130.165656,31.0740244 130.18101,30.8654878 130.22488,30.682561 C130.265825,30.7220732 130.268749,30.7959756 130.279717,30.8632927 C130.274599,30.8852439 130.290684,30.887439 130.307501,30.8896341 C130.371112,30.7513415 130.317006,30.502561 130.334554,30.3218293 C130.317737,30.2435366 130.36965,30.0993902 130.307501,30.0642683 L130.307501,29.6771951 L130.692092,29.6771951 C130.782756,29.6954878 130.868301,29.7181707 130.967008,29.7291463 L130.975782,29.7291463 C131.052554,29.7628049 131.265322,29.7628049 131.342094,29.7291463 L131.35233,29.7291463 L131.489788,29.7291463 L131.600193,29.7291463 L131.600193,30.2186585 C131.600925,30.5113415 131.557055,30.7630488 131.544625,31.0432927 C131.499293,31.2415854 131.499293,31.6191463 131.544625,31.817439 L131.544625,32.0493902 C131.523422,32.1723171 131.587764,32.2154878 131.572409,32.3332927 C131.606043,32.4496341 131.675503,32.7671951 131.713523,32.789878 C131.714255,32.7810976 131.713523,32.7730488 131.713523,32.7642683 C131.808574,33.3467073 132.103232,33.7842683 132.208519,34.385 L132.373762,34.385 C132.376686,34.3279268 132.490016,34.3747561 132.538273,34.3593902 C132.601884,34.3067073 132.548509,34.145 132.566057,34.049878 C132.759084,34.0418293 132.893617,33.9789024 133.034,33.9210976 C133.017914,33.5837805 132.869489,33.3020732 132.887768,32.9318293 C132.824888,32.8879268 132.858521,32.7664634 132.840974,32.680122 C132.840974,32.5513415 132.782481,32.410122 132.782481,32.2813415 L132.782481,31.895 L132.754697,31.895 L132.754697,31.3791463 L132.754697,31.1471951 C132.690354,30.640122 132.745923,30.0210976 132.727644,29.4708537 L132.754697,29.4708537 L132.782481,29.4708537 C133.009872,29.4437805 133.020108,29.530122 133.158297,29.4196341 C133.404699,29.200122 133.387882,28.6791463 133.378377,28.3615854" id="Fill-79" fill="#F16822"></path>
                        <path d="M132.007962,21.4317317 C131.96263,21.0146585 131.925341,20.5939268 131.705261,20.3605122 C131.580964,20.2280732 131.403292,20.2514878 131.292887,20.098561 C131.342605,20.0114878 131.462516,20.2119756 131.512966,20.1249024 C131.369658,20.0166098 131.210997,19.9236829 131.01797,19.8636829 C130.559532,20.1600244 129.951937,20.3144146 129.340687,20.4644146 C128.975838,20.8236829 128.783542,21.3322195 129.010202,21.8239268 C129.149854,22.1268537 129.630227,22.8029512 129.89052,22.9997805 C130.340915,23.3400244 131.066227,23.1841707 131.733045,23.1819756 C131.939964,22.8483171 131.986758,22.361 132.007962,21.8495366 C132.053294,21.7705122 132.053294,21.5107561 132.007962,21.4317317 M129.807899,18.9227073 L130.715269,18.9227073 C132.339178,19.096122 133.017695,20.1666098 133.052791,21.8495366 C133.043286,21.9183171 132.993567,22.1802683 133.079844,22.163439 L133.079844,22.7378293 C132.851722,23.5712439 132.412294,24.1888049 131.485182,24.358561 C131.088162,24.431 130.649465,24.4053902 130.192489,24.4888049 C130.075504,24.5041707 130.139115,24.3475854 130.000194,24.3841707 C129.296817,24.4075854 129.095748,23.9553902 128.735286,23.6524634 C128.673137,23.5719756 128.600021,23.5024634 128.515206,23.4439268 C128.235903,23.0978293 128.069198,22.4224634 127.910536,21.875878 L127.910536,21.3790488 C128.173754,20.2105122 128.352157,18.9592927 129.807899,18.9227073" id="Fill-80" fill="#F16822"></path>
                    </g>
                </g>
            </g>
        </g>
    </g>
</svg>